<svg width="467" height="306" viewBox="0 0 467 306" fill="none" xmlns="http://www.w3.org/2000/svg">
<rect width="467" height="306" fill="#1E1E1E"/>
<path d="M178.001 207.732C195.779 194.111 204.587 181.03 196.111 178.59C186.656 176.026 180.313 190.182 178.001 207.732Z" fill="#D9D9D9"/>
<path d="M116.436 141.67C114.061 126.629 96.3519 105.571 63.7776 141.67C42.0613 166.967 11.6586 221.663 63.7776 238.072C128.926 258.584 217.488 184.744 196.111 178.59C183.976 175.299 176.967 199.551 177.027 223.173C177.099 251.834 202.898 273.793 231.319 270.09C247.346 268.002 265.314 262.161 280.326 250.958C307.81 230.447 408.799 159.117 406.551 52M406.551 52L356.672 84.8177M406.551 52L432 108.406" stroke="#FF7017" stroke-width="26" stroke-linecap="round"/>
<g style="mix-blend-mode:overlay">
<path d="M178.001 207.732C195.779 194.111 204.587 181.03 196.111 178.59C186.656 176.026 180.313 190.182 178.001 207.732Z" fill="#D9D9D9"/>
<path d="M116.436 141.67C114.061 126.629 96.3519 105.571 63.7776 141.67C42.0613 166.967 11.6586 221.664 63.7776 238.072C128.926 258.584 217.488 184.744 196.111 178.59C183.976 175.299 176.967 199.551 177.027 223.173C177.099 251.834 202.898 273.793 231.319 270.09C247.346 268.002 265.314 262.161 280.326 250.958C307.81 230.447 408.799 159.117 406.551 52M406.551 52L356.672 84.8177M406.551 52L432 108.406" stroke="#957BC9" stroke-width="70" stroke-linecap="round"/>
</g>
</svg>
